<!--?xml version="1.0" standalone="no"?-->
              <svg id="sw-js-blob-svg" viewBox="0 0 100 100" xmlns="http://www.w3.org/2000/svg" version="1.1">
                    <defs> 
                        <linearGradient id="sw-gradient" x1="0" x2="1" y1="1" y2="0">
                            <stop id="stop1" stop-color="rgba(0, 0, 0, 1)" offset="0%"></stop>
                            <stop id="stop2" stop-color="rgba(169.46, 0.203, 239.432, 1)" offset="100%"></stop>
                        </linearGradient>
                    </defs>
                <path fill="url(#sw-gradient)" d="M24.8,-37.1C31.9,-34.1,37.2,-26.7,40.8,-18.7C44.4,-10.7,46.1,-1.9,44.4,6C42.7,13.9,37.5,21,31.8,27.5C26.1,34,19.8,40,12.6,41.6C5.4,43.2,-2.8,40.3,-10,36.9C-17.2,33.5,-23.3,29.5,-28.5,24.3C-33.6,19.1,-37.6,12.5,-38.9,5.4C-40.2,-1.7,-38.6,-9.3,-36.1,-17.1C-33.5,-24.9,-29.9,-32.9,-23.7,-36.3C-17.5,-39.8,-8.7,-38.9,0.1,-38.9C8.9,-39,17.7,-40.2,24.8,-37.1Z" width="100%" height="100%" transform="translate(50 50)" stroke-width="0" style="transition: all 0.3s ease 0s;"></path>
              </svg>